<svg width="20" height="20" viewBox="0 0 20 20" fill="none" xmlns="http://www.w3.org/2000/svg">
<path d="M11 0.0499878V3.07999C14.39 3.56999 17 6.46999 17 9.99999C17 10.9 16.82 11.75 16.52 12.54L19.12 14.07C19.68 12.83 20 11.45 20 9.99999C20 4.81999 16.05 0.549988 11 0.0499878ZM10 17C6.13 17 3 13.87 3 9.99999C3 6.46999 5.61 3.56999 9 3.07999V0.0499878C3.94 0.549988 0 4.80999 0 9.99999C0 15.52 4.47 20 9.99 20C13.3 20 16.23 18.39 18.05 15.91L15.45 14.38C14.17 15.98 12.21 17 10 17Z" fill="#302E2E"/>
</svg>
