<svg width="19" height="20" viewBox="0 0 19 20" fill="none" xmlns="http://www.w3.org/2000/svg">
<path d="M16.4731 10.536C16.5091 10.236 16.5331 9.924 16.5331 9.6C16.5331 9.276 16.5091 8.964 16.4611 8.664L18.4891 7.08C18.6691 6.936 18.7171 6.672 18.6091 6.468L16.6891 3.144C16.5691 2.928 16.3171 2.856 16.1011 2.928L13.7131 3.888C13.2091 3.504 12.6811 3.192 12.0931 2.952L11.7331 0.408C11.6971 0.168 11.4931 0 11.2531 0H7.41311C7.17311 0 6.98112 0.168 6.94512 0.408L6.58511 2.952C5.99711 3.192 5.45712 3.516 4.96512 3.888L2.57711 2.928C2.36111 2.844 2.10911 2.928 1.98911 3.144L0.0691144 6.468C-0.0508856 6.684 -0.00288541 6.936 0.189115 7.08L2.21711 8.664C2.16911 8.964 2.13311 9.288 2.13311 9.6C2.13311 9.912 2.15711 10.236 2.20511 10.536L0.177114 12.12C-0.0028857 12.264 -0.0508856 12.528 0.0571144 12.732L1.97711 16.056C2.09711 16.272 2.34911 16.344 2.56511 16.272L4.95311 15.312C5.45711 15.696 5.98511 16.008 6.57311 16.248L6.93312 18.792C6.98111 19.032 7.17311 19.2 7.41311 19.2H11.2531C11.4931 19.2 11.6971 19.032 11.7211 18.792L12.0811 16.248C12.6691 16.008 13.2091 15.684 13.7011 15.312L16.0891 16.272C16.3051 16.356 16.5571 16.272 16.6771 16.056L18.5971 12.732C18.7171 12.516 18.6691 12.264 18.4771 12.12L16.4731 10.536ZM9.33311 13.2C7.35312 13.2 5.73311 11.58 5.73311 9.6C5.73311 7.62 7.35312 6 9.33311 6C11.3131 6 12.9331 7.62 12.9331 9.6C12.9331 11.58 11.3131 13.2 9.33311 13.2Z" fill="#302E2E"/>
</svg>
