<svg width="33" height="33" viewBox="0 0 33 33" fill="none" xmlns="http://www.w3.org/2000/svg">
<path d="M16.4863 2.75C8.89633 2.75 2.73633 8.91 2.73633 16.5C2.73633 24.09 8.89633 30.25 16.4863 30.25C24.0763 30.25 30.2363 24.09 30.2363 16.5C30.2363 8.91 24.0763 2.75 16.4863 2.75ZM21.4501 11.4675C22.9213 11.4675 24.1038 12.65 24.1038 14.1213C24.1038 15.5925 22.9213 16.775 21.4501 16.775C19.9788 16.775 18.7963 15.5925 18.7963 14.1213C18.7826 12.65 19.9788 11.4675 21.4501 11.4675ZM13.2001 9.295C14.9876 9.295 16.4451 10.7525 16.4451 12.54C16.4451 14.3275 14.9876 15.785 13.2001 15.785C11.4126 15.785 9.95508 14.3275 9.95508 12.54C9.95508 10.7387 11.3988 9.295 13.2001 9.295ZM13.2001 21.8488V27.005C9.90008 25.9737 7.28758 23.43 6.13258 20.185C7.57633 18.645 11.1788 17.8612 13.2001 17.8612C13.9288 17.8612 14.8501 17.9712 15.8126 18.1637C13.5576 19.36 13.2001 20.9412 13.2001 21.8488ZM16.4863 27.5C16.1151 27.5 15.7576 27.4862 15.4001 27.445V21.8488C15.4001 19.8962 19.4426 18.92 21.4501 18.92C22.9213 18.92 25.4651 19.4562 26.7301 20.5012C25.1213 24.585 21.1476 27.5 16.4863 27.5Z" fill="#302E2E"/>
</svg>
