<svg xmlns="http://www.w3.org/2000/svg" width="22" height="22" fill="none" viewBox="0 0 22 22"><path fill="#302E2E" d="M11 0C4.928 0 0 4.928 0 11C0 17.072 4.928 22 11 22C17.072 22 22 17.072 22 11C22 4.928 17.072 0 11 0ZM14.971 6.974C16.148 6.974 17.094 7.92 17.094 9.097C17.094 10.274 16.148 11.22 14.971 11.22C13.794 11.22 12.848 10.274 12.848 9.097C12.837 7.92 13.794 6.974 14.971 6.974ZM8.371 5.236C9.801 5.236 10.967 6.402 10.967 7.832C10.967 9.262 9.801 10.428 8.371 10.428C6.941 10.428 5.775 9.262 5.775 7.832C5.775 6.391 6.93 5.236 8.371 5.236ZM8.371 15.279V19.404C5.731 18.579 3.641 16.544 2.717 13.948C3.872 12.716 6.754 12.089 8.371 12.089C8.954 12.089 9.691 12.177 10.461 12.331C8.657 13.288 8.371 14.553 8.371 15.279ZM11 19.8C10.703 19.8 10.417 19.789 10.131 19.756V15.279C10.131 13.717 13.365 12.936 14.971 12.936C16.148 12.936 18.183 13.365 19.195 14.201C17.908 17.468 14.729 19.8 11 19.8Z"/></svg>